<svg xmlns="http://www.w3.org/2000/svg" xmlns:xlink="http://www.w3.org/1999/xlink" xmlns:inkscape="http://www.inkscape.org/namespaces/inkscape" version="1.1" width="375" height="375" viewBox="0 0 375 375">
<defs>
<clipPath id="clip_0">
<path transform="matrix(.24,0,0,.24,0,0)" d="M0 0H1562.5V1562.5H0Z" clip-rule="evenodd"/>
</clipPath>
<clipPath id="clip_1">
<path transform="matrix(.24,0,0,.24,0,0)" d="M0 0H1562.5V1562.5H0Z" clip-rule="evenodd"/>
</clipPath>
<clipPath id="clip_2">
<path transform="matrix(.24,0,0,.24,0,0)" d="M0 0H1562.5V1562.5H0Z" clip-rule="evenodd"/>
</clipPath>
<clipPath id="clip_3">
<path transform="matrix(.24,0,0,.24,28.56,30.24)" d="M0 0H1324V1324H0Z" clip-rule="evenodd"/>
</clipPath>
<clipPath id="clip_4">
<path transform="matrix(.24,0,0,.24,28.56,30.24)" d="M0 0H1324V1324H0Z" clip-rule="evenodd"/>
</clipPath>
<clipPath id="clip_5">
<path transform="matrix(.24,0,0,.24,28.56,30.24)" d="M.91767886 .46624757H1325V1324.7471H.91767886Z" clip-rule="evenodd"/>
</clipPath>
<clipPath id="clip_6">
<path transform="matrix(.24,0,0,.24,28.56,30.24)" d="M242.62522 104.32602H1082.06V1218.7482H242.62522Z" clip-rule="evenodd"/>
</clipPath>
<clipPath id="clip_7">
<path transform="matrix(.24,0,0,.24,86.64,55.199998)" d="M0 0H793V1114H0Z" clip-rule="evenodd"/>
</clipPath>
<clipPath id="clip_8">
<path transform="matrix(.24,0,0,.24,86.64,55.199998)" d="M.6252136 .8347168H794V1115H.6252136Z" clip-rule="evenodd"/>
</clipPath>
<clipPath id="clip_9">
<path transform="matrix(.24,0,0,.24,28.56,30.24)" d="M242.39917 104.83472H1081.834V1219.2568H242.39917Z" clip-rule="evenodd"/>
</clipPath>
<clipPath id="clip_10">
<path transform="matrix(.24,0,0,.24,28.56,30.24)" d="M495.47608 254.19312H828.3554V901.8605H495.47608Z" clip-rule="evenodd"/>
</clipPath>
<clipPath id="clip_11">
<path transform="matrix(.24,0,0,.24,28.56,27.119999)" d="M0 0H1324V1324H0Z" clip-rule="evenodd"/>
</clipPath>
<clipPath id="clip_12">
<path transform="matrix(.24,0,0,.24,28.56,27.119999)" d="M.91767886 .36911775H1325V1324.6499H.91767886Z" clip-rule="evenodd"/>
</clipPath>
<clipPath id="clip_13">
<path transform="matrix(.24,0,0,.24,28.56,27.119999)" d="M242.62522 104.2289H1082.06V1218.651H242.62522Z" clip-rule="evenodd"/>
</clipPath>
<clipPath id="clip_14">
<path transform="matrix(.24,0,0,.24,86.64,52.079999)" d="M0 0H793V1114H0Z" clip-rule="evenodd"/>
</clipPath>
<clipPath id="clip_15">
<path transform="matrix(.24,0,0,.24,86.64,52.079999)" d="M.6252136 .7375488H794V1115H.6252136Z" clip-rule="evenodd"/>
</clipPath>
<clipPath id="clip_16">
<path transform="matrix(.24,0,0,.24,28.56,27.119999)" d="M242.39917 104.73767H1081.834V1219.1598H242.39917Z" clip-rule="evenodd"/>
</clipPath>
<clipPath id="clip_17">
<path transform="matrix(.24,0,0,.24,28.56,27.119999)" d="M495.47608 254.09601H828.3554V901.76339H495.47608Z" clip-rule="evenodd"/>
</clipPath>
</defs>
<g>
<g clip-path="url(#clip_0)">
<path transform="matrix(.75,0,0,.75,0,0)" d="M0 0H500V500H0Z" fill="#ffffff"/>
</g>
<g clip-path="url(#clip_1)">
<path transform="matrix(.75,0,0,.75,0,0)" d="M0 0H500V500H0Z" fill="#ffffff"/>
</g>
<g clip-path="url(#clip_2)">
<g opacity=".53">
<g clip-path="url(#clip_3)">
<g>
<g clip-path="url(#clip_4)">
<g clip-path="url(#clip_5)">
<path transform="matrix(.6348678,0,0,.6348678,28.780243,30.351899)" d="M250 0C225.635 205.882 205.882 225.634 0 250 .428 250.051 .84900006 250.101 1.276 250.152L1.28 250.15599 1.2839999 250.15299C205.958 274.449 225.686 294.549 250 500 274.365 294.11799 294.118 274.365 500 250 294.118 225.634 274.365 205.882 250 0Z"/>
</g>
<g clip-path="url(#clip_6)">
<g>
<g clip-path="url(#clip_7)">
<g clip-path="url(#clip_8)">
<path transform="matrix(3.166825,0,0,-3.166825,86.790058,322.55165)" d="M0 0C6.751 26.105 17.585 29.778 17.9 39.995 22.095 41.092 28.21 48.355 31.569 51.416 31.569 51.416 30.905 43.065004 36.5 46.627 42.094 50.188 44.819 55.619 43.979 58.309999 43.139 60.999998 41.361 60.204999 41.361 60.204999 41.361 60.204999 55.114999 67.198 51.524003 72.050998 50.374 73.605998 45.942 71.879 43.417 69.02799 39.33 64.413997 36.235 56.643995 30.229 53.519994 30.229 53.519994 32.144 53.36299 33.631 54.879995 33.631 54.879995 28.285 48.922994 23.11 46.970994 23.11 46.970994 28.326 49.754995 28.32 54.72399 28.314 59.692995 24.146 54.41799 24.146 54.41799 24.146 54.41799 25.103 59.193994 31.643 66.65199 31.643 66.65199 28.286 61.79299 29.504 59.879995 30.722 57.966997 36.521 59.307996 39.534 66.50199 42.547 73.69499 49.784 78.00199 54.982004 80.70699 54.982004 80.70699 51.288003 77.74999 52.788003 75.44599 54.288003 73.14199 57.226 74.911998 58.514 77.84899 59.802 80.78599 58.625 84.26999 58.625 84.26999 63.643 75.48099 51.828 54.926988 48.444 49.542989 48.963 50.927988 52.426 58.581987 52.679 62.44899 52.835 64.83199 51.172 65.10799 49.576 61.06999 47.517 55.861989 45.913003 38.64499 28.687 29.289988 28.687 29.289988 35.637 34.521989 37.235 39.503988 38.833 44.485986 29.535 41.992986 22.126 33.578989 14.716 25.164988 7.8269999 18.358986 6.1070005 12.828987 6.1070005 12.828987 8.458 16.946988 17.621 22.713988 8.389 15.022 5.91 9.811 0 0Z" fill-rule="evenodd"/>
</g>
</g>
</g>
</g>
<g clip-path="url(#clip_9)">
<path transform="matrix(-3.166825,0,0,-3.166825,288.20014,322.5516)" d="M0 0C6.751 26.105 17.585 29.778 17.9 39.995 22.095 41.092 28.21 48.355 31.569 51.416 31.569 51.416 30.905 43.065004 36.5 46.627 42.094 50.188 44.819 55.619 43.979 58.309999 43.139 60.999998 41.361 60.204999 41.361 60.204999 41.361 60.204999 55.114999 67.198 51.524003 72.050998 50.374 73.605998 45.942 71.879 43.417 69.02799 39.33 64.413997 36.235 56.643995 30.229 53.519994 30.229 53.519994 32.144 53.36299 33.631 54.879995 33.631 54.879995 28.285 48.922994 23.11 46.970994 23.11 46.970994 28.326 49.754995 28.32 54.72399 28.314 59.692995 24.146 54.41799 24.146 54.41799 24.146 54.41799 25.103 59.193994 31.643 66.65199 31.643 66.65199 28.286 61.79299 29.504 59.879995 30.722 57.966997 36.521 59.307996 39.534 66.50199 42.547 73.69499 49.784 78.00199 54.982004 80.70699 54.982004 80.70699 51.288003 77.74999 52.788003 75.44599 54.288003 73.14199 57.226 74.911998 58.514 77.84899 59.802 80.78599 58.625 84.26999 58.625 84.26999 63.643 75.48099 51.828 54.926988 48.444 49.542989 48.963 50.927988 52.426 58.581987 52.679 62.44899 52.835 64.83199 51.172 65.10799 49.576 61.06999 47.517 55.861989 45.913003 38.64499 28.687 29.289988 28.687 29.289988 35.637 34.521989 37.235 39.503988 38.833 44.485986 29.535 41.992986 22.126 33.578989 14.716 25.164988 7.8269999 18.358986 6.1070005 12.828987 6.1070005 12.828987 8.458 16.946988 17.621 22.713988 8.389 15.022 5.91 9.811 0 0Z" fill-rule="evenodd"/>
</g>
<g clip-path="url(#clip_10)">
<path transform="matrix(0,-2.2333358,2.230728,0,145.92824,247.80319)" d="M.47265605 18.757813V18.480469C32.671876 18.480469 35.01172 15.796875 35.01172 .734375H35.546876C35.546876 15.796875 37.890626 18.480469 70.08984 18.480469V18.757813C37.890626 18.757813 35.546876 21.4375 35.546876 36.5H35.01172C35.01172 21.4375 32.671876 18.757813 .47265605 18.757813" fill="#ffffff" fill-rule="evenodd"/>
</g>
</g>
</g>
</g>
</g>
<g>
<g clip-path="url(#clip_11)">
<g clip-path="url(#clip_12)">
<path transform="matrix(.6348678,0,0,.6348678,28.780243,27.208588)" d="M250 0C225.635 205.882 205.882 225.634 0 250 .428 250.051 .84900006 250.101 1.276 250.152L1.28 250.15599 1.2839999 250.15299C205.958 274.449 225.686 294.549 250 500 274.365 294.11799 294.118 274.365 500 250 294.118 225.634 274.365 205.882 250 0Z"/>
</g>
<g clip-path="url(#clip_13)">
<g>
<g clip-path="url(#clip_14)">
<g clip-path="url(#clip_15)">
<path transform="matrix(3.166825,0,0,-3.166825,86.790058,319.40827)" d="M0 0C6.751 26.105 17.585 29.778 17.9 39.995 22.095 41.092 28.21 48.355 31.569 51.416 31.569 51.416 30.905 43.065004 36.5 46.627 42.094 50.188 44.819 55.619 43.979 58.309999 43.139 60.999998 41.361 60.204999 41.361 60.204999 41.361 60.204999 55.114999 67.198 51.524003 72.050998 50.374 73.605998 45.942 71.879 43.417 69.02799 39.33 64.413997 36.235 56.643995 30.229 53.519994 30.229 53.519994 32.144 53.36299 33.631 54.879995 33.631 54.879995 28.285 48.922994 23.11 46.970994 23.11 46.970994 28.326 49.754995 28.32 54.72399 28.314 59.692995 24.146 54.41799 24.146 54.41799 24.146 54.41799 25.103 59.193994 31.643 66.65199 31.643 66.65199 28.286 61.79299 29.504 59.879995 30.722 57.966997 36.521 59.307996 39.534 66.50199 42.547 73.69499 49.784 78.00199 54.982004 80.70699 54.982004 80.70699 51.288003 77.74999 52.788003 75.44599 54.288003 73.14199 57.226 74.911998 58.514 77.84899 59.802 80.78599 58.625 84.26999 58.625 84.26999 63.643 75.48099 51.828 54.926988 48.444 49.542989 48.963 50.927988 52.426 58.581987 52.679 62.44899 52.835 64.83199 51.172 65.10799 49.576 61.06999 47.517 55.861989 45.913003 38.64499 28.687 29.289988 28.687 29.289988 35.637 34.521989 37.235 39.503988 38.833 44.485986 29.535 41.992986 22.126 33.578989 14.716 25.164988 7.8269999 18.358986 6.1070005 12.828987 6.1070005 12.828987 8.458 16.946988 17.621 22.713988 8.389 15.022 5.91 9.811 0 0Z" fill-rule="evenodd"/>
</g>
</g>
</g>
</g>
<g clip-path="url(#clip_16)">
<path transform="matrix(-3.166825,0,0,-3.166825,288.20014,319.40834)" d="M0 0C6.751 26.105 17.585 29.778 17.9 39.995 22.095 41.092 28.21 48.355 31.569 51.416 31.569 51.416 30.905 43.065004 36.5 46.627 42.094 50.188 44.819 55.619 43.979 58.309999 43.139 60.999998 41.361 60.204999 41.361 60.204999 41.361 60.204999 55.114999 67.198 51.524003 72.050998 50.374 73.605998 45.942 71.879 43.417 69.02799 39.33 64.413997 36.235 56.643995 30.229 53.519994 30.229 53.519994 32.144 53.36299 33.631 54.879995 33.631 54.879995 28.285 48.922994 23.11 46.970994 23.11 46.970994 28.326 49.754995 28.32 54.72399 28.314 59.692995 24.146 54.41799 24.146 54.41799 24.146 54.41799 25.103 59.193994 31.643 66.65199 31.643 66.65199 28.286 61.79299 29.504 59.879995 30.722 57.966997 36.521 59.307996 39.534 66.50199 42.547 73.69499 49.784 78.00199 54.982004 80.70699 54.982004 80.70699 51.288003 77.74999 52.788003 75.44599 54.288003 73.14199 57.226 74.911998 58.514 77.84899 59.802 80.78599 58.625 84.26999 58.625 84.26999 63.643 75.48099 51.828 54.926988 48.444 49.542989 48.963 50.927988 52.426 58.581987 52.679 62.44899 52.835 64.83199 51.172 65.10799 49.576 61.06999 47.517 55.861989 45.913003 38.64499 28.687 29.289988 28.687 29.289988 35.637 34.521989 37.235 39.503988 38.833 44.485986 29.535 41.992986 22.126 33.578989 14.716 25.164988 7.8269999 18.358986 6.1070005 12.828987 6.1070005 12.828987 8.458 16.946988 17.621 22.713988 8.389 15.022 5.91 9.811 0 0Z" fill-rule="evenodd"/>
</g>
<g clip-path="url(#clip_17)">
<path transform="matrix(0,-2.2333358,2.230728,0,145.92824,244.65987)" d="M.47265605 18.757813V18.480469C32.671876 18.480469 35.01172 15.796875 35.01172 .734375H35.546876C35.546876 15.796875 37.890626 18.480469 70.08984 18.480469V18.757813C37.890626 18.757813 35.546876 21.4375 35.546876 36.5H35.01172C35.01172 21.4375 32.671876 18.757813 .47265605 18.757813" fill="#ffffff" fill-rule="evenodd"/>
</g>
</g>
</g>
</g>
<path transform="matrix(1,0,0,-1,0,383.03999)" d="M28.780243 38.391889H346.21977V355.8314H28.780243Z" fill-opacity="0"/>
<path transform="matrix(1,0,0,-1,0,383.03999)" d="M86.790058 63.318235H288.20997V330.90507H86.790058Z" fill-opacity="0"/>
<path transform="matrix(1,0,0,-1,0,383.03999)" d="M86.790058 63.318235H288.20997V330.90507H86.790058Z" fill-opacity="0"/>
<path transform="matrix(1,0,0,-1,0,383.03999)" d="M147.47867 139.48999H227.52133V295.04994H147.47867Z" fill-opacity="0"/>
<path transform="matrix(1,0,0,-1,0,383.03999)" d="M28.780243 35.248579H346.21977V352.68809H28.780243Z" fill-opacity="0"/>
<path transform="matrix(1,0,0,-1,0,383.03999)" d="M86.790058 60.174924H288.20997V327.76176H86.790058Z" fill-opacity="0"/>
<path transform="matrix(1,0,0,-1,0,383.03999)" d="M86.790058 60.174924H288.20997V327.76176H86.790058Z" fill-opacity="0"/>
<path transform="matrix(1,0,0,-1,0,383.03999)" d="M147.47867 136.34668H227.52133V291.90663H147.47867Z" fill-opacity="0"/>
</g>
</svg>
